<?xml version="1.0" standalone="no"?>
<!DOCTYPE svg PUBLIC "-//W3C//DTD SVG 20010904//EN"
 "http://www.w3.org/TR/2001/REC-SVG-20010904/DTD/svg10.dtd">
<svg version="1.0" xmlns="http://www.w3.org/2000/svg"
 width="1024.000000pt" height="1024.000000pt" viewBox="0 0 1024.000000 1024.000000"
 preserveAspectRatio="xMidYMid meet">
<metadata>
Created by potrace 1.14, written by Peter Selinger 2001-2017
</metadata>
<g transform="translate(0.000000,1024.000000) scale(0.100000,-0.100000)"
fill="#000000" stroke="none">
<path d="M6530 9953 c-235 -35 -440 -115 -620 -241 -95 -67 -266 -244 -331
-342 -100 -150 -169 -313 -202 -477 l-14 -68 -174 -1 c-170 -1 -519 -12 -609
-19 -86 -7 -195 -17 -225 -20 -16 -2 -59 -6 -95 -10 -36 -4 -72 -9 -80 -10 -8
-2 -42 -6 -75 -9 -33 -4 -67 -9 -75 -11 -8 -2 -37 -6 -65 -10 -27 -3 -57 -8
-65 -10 -8 -2 -33 -6 -55 -10 -124 -17 -418 -81 -620 -134 -197 -52 -572 -175
-690 -226 -16 -7 -66 -27 -110 -45 -148 -60 -420 -189 -535 -255 -36 -20 -90
-51 -120 -67 -97 -54 -301 -187 -424 -276 -371 -271 -674 -581 -900 -920 -47
-70 -86 -133 -86 -140 0 -7 -3 -12 -7 -12 -5 0 -13 -10 -19 -23 -5 -12 -26
-53 -46 -92 -20 -38 -53 -106 -73 -150 -45 -98 -138 -372 -132 -388 3 -7 8 2
12 18 21 80 154 302 256 427 292 356 850 726 1444 957 44 18 89 36 100 41 40
20 344 122 505 170 229 67 587 155 760 186 14 2 36 7 50 9 14 3 39 8 55 10 17
3 41 8 55 10 54 11 69 14 121 20 30 4 56 8 59 10 3 1 32 6 65 10 32 3 62 8 65
10 3 1 32 6 65 9 33 4 74 9 90 11 46 7 94 13 160 20 33 3 74 8 90 10 17 2 66
6 110 10 44 4 96 8 115 10 19 2 80 7 135 10 55 3 127 8 160 11 104 8 899 14
911 6 6 -4 28 -52 49 -107 34 -90 130 -293 182 -386 174 -308 419 -624 713
-919 304 -307 598 -540 910 -722 174 -102 419 -218 461 -218 22 0 146 53 274
118 452 227 954 635 1354 1101 286 332 544 763 666 1111 107 306 154 652 119
875 -52 332 -230 644 -484 848 -413 330 -965 391 -1435 157 -191 -95 -345
-222 -480 -395 -15 -20 -16 -19 -48 20 -69 87 -219 225 -306 283 -235 158
-472 230 -746 229 -77 0 -151 -2 -165 -4z"/>
<path d="M1776 6559 c-83 -9 -269 -43 -321 -59 -230 -72 -411 -155 -566 -260
-538 -366 -855 -963 -857 -1610 0 -264 95 -721 220 -1055 299 -798 940 -1654
1763 -2356 436 -373 950 -702 1365 -877 159 -66 157 -66 230 -36 672 269 1392
788 2045 1475 83 87 206 224 216 240 6 11 22 14 104 23 146 16 217 26 395 56
69 12 139 24 155 27 17 2 62 11 100 20 39 8 81 17 95 19 57 11 235 56 356 89
71 20 136 38 144 40 94 22 551 189 700 257 166 75 232 106 320 151 273 141
504 286 730 458 561 426 955 940 1142 1489 45 135 93 330 104 430 3 25 7 56
10 70 7 39 17 326 11 320 -3 -3 -8 -29 -12 -59 -12 -99 -56 -263 -76 -286 -5
-5 -9 -15 -9 -22 0 -36 -162 -316 -214 -369 -6 -6 -22 -26 -36 -44 -27 -37
-211 -224 -275 -281 -40 -35 -191 -152 -232 -179 -12 -8 -59 -40 -105 -71
-151 -102 -424 -252 -603 -331 -33 -14 -80 -35 -105 -46 -199 -88 -636 -242
-819 -288 -9 -2 -56 -15 -106 -29 -49 -14 -99 -27 -110 -29 -11 -2 -47 -11
-80 -20 -72 -18 -423 -92 -480 -100 -23 -4 -52 -9 -65 -12 -54 -11 -204 -33
-208 -30 -2 2 1 12 7 23 24 42 72 157 119 283 74 198 126 389 168 615 4 22 8
45 10 50 40 156 49 472 20 665 -83 549 -382 1021 -841 1331 -100 67 -109 72
-220 127 -379 188 -826 246 -1240 161 -441 -91 -843 -338 -1129 -697 l-58 -72
-51 67 c-61 83 -239 261 -326 328 -166 126 -367 238 -541 300 -96 34 -279 81
-350 90 -30 4 -66 9 -80 11 -54 9 -339 11 -414 3z"/>
</g>
</svg>
